<svg id="Layer_1" data-name="Layer 1" xmlns="http://www.w3.org/2000/svg" viewBox="0 0 72 72"><defs><style>.cls-1{fill:#0a2045;}</style></defs><path class="cls-1" d="M12.21,32l25-21.12,11.66,9.89-.05-7.27,4.29,3.33.15,7.72,8.58,6.57S34.69,30.51,23,42.85c0,0,5.83-11.58,28.33-14.36,0,0,.93-.39,0-1.52s-14-11.1-14-11.1L16.85,32Z"/><rect class="cls-1" x="35.07" y="20.01" width="1.91" height="1.91"/><rect class="cls-1" x="35.07" y="22.82" width="1.91" height="1.91"/><rect class="cls-1" x="37.46" y="19.98" width="1.91" height="1.91"/><rect class="cls-1" x="37.46" y="22.79" width="1.91" height="1.91"/><path class="cls-1" d="M.37,59.8,11.9,33.28h5l5.18,11.6a6.07,6.07,0,0,0-4,3.87l-3.24-7.71s-.57-1.07-1.19,0L6.6,59.66H.18"/><path class="cls-1" d="M23.61,48.45,28,59.58H21.88l-2.63-7.36s-2.8,1.23-6.16,6.23c0,0-2,1.86-.64-1.14,0,0,12.88-29.69,59.5-24L72,38,58.36,53.55s-1.45,1.11,0,1.32L72,54.51l0,5.11-21.51,0L50.34,55,63.18,39.88s1.75-1.38,0-2.06C63.2,37.82,33.84,37.31,23.61,48.45Z"/><path class="cls-1" d="M36.1,57.12a5.72,5.72,0,0,1-.8.11,3.89,3.89,0,0,1-.85,0,2,2,0,0,1-1.59-.91,3.36,3.36,0,0,1-.17-2l.93-5.86-1.17-.19.09-.37,0-.35,1.17.19.3-1.88,1.61-.35-.39,2.47,2,.32-.09.35,0,.36-2-.31-.88,5.56A3.52,3.52,0,0,0,34.31,56a1.23,1.23,0,0,0,1,.71,1,1,0,0,0,.29,0l.55,0Z"/><path class="cls-1" d="M34.93,57.56a2.93,2.93,0,0,1-.53,0,2.31,2.31,0,0,1-1.82-1.07,3.55,3.55,0,0,1-.2-2.25l.87-5.55-1.2-.19.18-.68,0-.67,1.21.19.28-1.77L36,45l-.42,2.61,2,.33-.17.66,0,.69-2-.33-.83,5.25a3,3,0,0,0,0,1.6.86.86,0,0,0,.77.51l.24,0,.53,0,.4,0-.17,1.06-.21,0a6.21,6.21,0,0,1-.84.12Zm-2.08-9.62,1.14.18L33,54.3a3.05,3.05,0,0,0,.13,1.85,1.75,1.75,0,0,0,1.36.74,2,2,0,0,0,.5,0,1.43,1.43,0,0,1-1-.83,3.65,3.65,0,0,1-.08-2l.93-5.88,2,.31v-.08l-2-.32.37-2.32-.94.21L34,48l-1.14-.18v.09Z"/><path class="cls-1" d="M47.48,53.06a4.64,4.64,0,0,1-1.87,3.22,4.71,4.71,0,0,1-3.59.77,4.5,4.5,0,0,1-3-1.74A4.12,4.12,0,0,1,38.22,52a9.57,9.57,0,0,1,.32-1.46,3.86,3.86,0,0,1,.58-1,4.21,4.21,0,0,1,2-1.51,5.18,5.18,0,0,1,2.69-.25,4.18,4.18,0,0,1,3,1.8A4.8,4.8,0,0,1,47.48,53.06Zm-1.65-.34A5.36,5.36,0,0,0,45.64,50a2.38,2.38,0,0,0-2-1.63,2.68,2.68,0,0,0-2.56.85,5.47,5.47,0,0,0-1.22,2.9A4.79,4.79,0,0,0,40.2,55a2.56,2.56,0,0,0,2,1.51,2.52,2.52,0,0,0,2.46-1.1A5.73,5.73,0,0,0,45.83,52.72Z"/><path class="cls-1" d="M42.94,57.44a6.45,6.45,0,0,1-1-.08,4.83,4.83,0,0,1-3.23-1.86A4.48,4.48,0,0,1,37.9,52a10,10,0,0,1,.34-1.52A4.8,4.8,0,0,1,41,47.74a5.58,5.58,0,0,1,2.85-.27,4.54,4.54,0,0,1,3.23,2,5.12,5.12,0,0,1,.7,3.69h0a5,5,0,0,1-2,3.43A4.81,4.81,0,0,1,42.94,57.44Zm3.2-4.67A5.93,5.93,0,0,1,45,55.57a3,3,0,0,1-1.9,1.23A4.17,4.17,0,0,0,45.43,56a4.35,4.35,0,0,0,1.74-3,4.48,4.48,0,0,0-.61-3.24,3.6,3.6,0,0,0-2.1-1.51,2.71,2.71,0,0,1,1.48,1.62,5.59,5.59,0,0,1,.2,2.89Zm-3.53-4.72a4.59,4.59,0,0,0-1.37.29,4,4,0,0,0-1.87,1.39,3.82,3.82,0,0,0-.52,1,8.52,8.52,0,0,0-.32,1.4,3.85,3.85,0,0,0,.72,3,4,4,0,0,0,2.22,1.48,2.84,2.84,0,0,1-1.56-1.49,5.1,5.1,0,0,1-.31-3A5.72,5.72,0,0,1,40.89,49,3,3,0,0,1,42.61,48.05Zm.53.59a2.32,2.32,0,0,0-1.78.8,5.22,5.22,0,0,0-1.13,2.73,4.61,4.61,0,0,0,.25,2.67,2.31,2.31,0,0,0,1.82,1.33,2.21,2.21,0,0,0,2.16-1,5.4,5.4,0,0,0,1-2.51h0a5,5,0,0,0-.17-2.56,2.07,2.07,0,0,0-1.7-1.43A4.57,4.57,0,0,0,43.14,48.64Z"/></svg>